<svg width="120" height="120" viewBox="0 0 120 120" fill="none" xmlns="http://www.w3.org/2000/svg">
<g id="iconoir:password-check">
<path id="Vector" d="M105 65V40C105 37.3478 103.946 34.8043 102.071 32.9289C100.196 31.0536 97.6522 30 95 30H25C22.3478 30 19.8043 31.0536 17.9289 32.9289C16.0536 34.8043 15 37.3478 15 40V70C15 72.6522 16.0536 75.1957 17.9289 77.0711C19.8043 78.9464 22.3478 80 25 80H60M72.5 92.5L82.5 102.5L102.5 82.5M60 55.05L60.05 54.995M80 55.05L80.05 54.995M40 55.05L40.05 54.995" stroke="#FFCC00" stroke-width="6" stroke-linecap="round" stroke-linejoin="round"/>
<path id="Star 1" d="M39.5384 49.3695C39.8145 48.4021 41.1855 48.4021 41.4616 49.3695L41.8577 50.7573C42.0058 51.2763 42.5389 51.5841 43.0624 51.4529L44.4624 51.102C45.4382 50.8574 46.1237 52.0447 45.424 52.7675L44.4201 53.8044C44.0447 54.1922 44.0447 54.8078 44.4201 55.1956L45.424 56.2325C46.1237 56.9553 45.4382 58.1426 44.4624 57.898L43.0624 57.5471C42.5389 57.4159 42.0058 57.7237 41.8577 58.2427L41.4616 59.6305C41.1855 60.5979 39.8145 60.5979 39.5384 59.6305L39.1423 58.2427C38.9942 57.7237 38.4611 57.4159 37.9376 57.5471L36.5376 57.898C35.5618 58.1426 34.8763 56.9553 35.576 56.2325L36.5799 55.1956C36.9553 54.8078 36.9553 54.1922 36.5799 53.8044L35.576 52.7675C34.8763 52.0447 35.5618 50.8574 36.5376 51.102L37.9376 51.4529C38.4611 51.5841 38.9942 51.2763 39.1423 50.7573L39.5384 49.3695Z" fill="#FFCC00"/>
<path id="Star 2" d="M58.5384 49.3695C58.8145 48.4021 60.1855 48.4021 60.4616 49.3695L60.8577 50.7573C61.0058 51.2763 61.5389 51.5841 62.0624 51.4529L63.4624 51.102C64.4382 50.8574 65.1237 52.0447 64.424 52.7675L63.4201 53.8044C63.0447 54.1922 63.0447 54.8078 63.4201 55.1956L64.424 56.2325C65.1237 56.9553 64.4382 58.1426 63.4624 57.898L62.0624 57.5471C61.5389 57.4159 61.0058 57.7237 60.8577 58.2427L60.4616 59.6305C60.1855 60.5979 58.8145 60.5979 58.5384 59.6305L58.1423 58.2427C57.9942 57.7237 57.4611 57.4159 56.9376 57.5471L55.5376 57.898C54.5618 58.1426 53.8763 56.9553 54.576 56.2325L55.5799 55.1956C55.9553 54.8078 55.9553 54.1922 55.5799 53.8044L54.576 52.7675C53.8763 52.0447 54.5618 50.8574 55.5376 51.102L56.9376 51.4529C57.4611 51.5841 57.9942 51.2763 58.1423 50.7573L58.5384 49.3695Z" fill="#FFCC00"/>
<path id="Star 3" d="M78.5384 49.3695C78.8145 48.4021 80.1855 48.4021 80.4616 49.3695L80.8577 50.7573C81.0058 51.2763 81.5389 51.5841 82.0624 51.4529L83.4624 51.102C84.4382 50.8574 85.1237 52.0447 84.424 52.7675L83.4201 53.8044C83.0447 54.1922 83.0447 54.8078 83.4201 55.1956L84.424 56.2325C85.1237 56.9553 84.4382 58.1426 83.4624 57.898L82.0624 57.5471C81.5389 57.4159 81.0058 57.7237 80.8577 58.2427L80.4616 59.6305C80.1855 60.5979 78.8145 60.5979 78.5384 59.6305L78.1423 58.2427C77.9942 57.7237 77.4611 57.4159 76.9376 57.5471L75.5376 57.898C74.5618 58.1426 73.8763 56.9553 74.576 56.2325L75.5799 55.1956C75.9553 54.8078 75.9553 54.1922 75.5799 53.8044L74.576 52.7675C73.8763 52.0447 74.5618 50.8574 75.5376 51.102L76.9376 51.4529C77.4611 51.5841 77.9942 51.2763 78.1423 50.7573L78.5384 49.3695Z" fill="#FFCC00"/>
</g>
</svg>
