<svg width="24" height="24" viewBox="0 0 24 24" fill="none" xmlns="http://www.w3.org/2000/svg">
<path d="M1.71875 6.64287C1.71875 5.79039 2.0574 4.97283 2.66019 4.37003C3.26299 3.76724 4.08055 3.42859 4.93304 3.42859H19.0725C19.9249 3.42859 20.7425 3.76724 21.3453 4.37003C21.9481 4.97283 22.2868 5.79039 22.2868 6.64287V6.65145L12.001 11.9203L1.71875 6.65487V6.64287ZM1.71875 8.09916V16.5C1.71875 17.3525 2.0574 18.1701 2.66019 18.7729C3.26299 19.3757 4.08055 19.7143 4.93304 19.7143H19.0725C19.9249 19.7143 20.7425 19.3757 21.3453 18.7729C21.9481 18.1701 22.2868 17.3525 22.2868 16.5V8.09659L12.2942 13.2154C12.2035 13.2619 12.103 13.2862 12.001 13.2862C11.8991 13.2862 11.7986 13.2619 11.7079 13.2154L1.71875 8.09916Z" fill="#AAAAAA"/>
</svg>
