<svg width="37" height="42" viewBox="0 0 37 42" fill="none" xmlns="http://www.w3.org/2000/svg">
<path d="M6.16667 16.7814C6.16554 14.1615 6.96264 11.6063 8.44721 9.47088C9.93177 7.33543 12.0301 5.72579 14.4506 4.86559C14.3568 4.2652 14.3916 3.65116 14.5525 3.06585C14.7134 2.48054 14.9966 1.93788 15.3826 1.47532C15.7685 1.01277 16.248 0.641319 16.788 0.386611C17.328 0.131904 17.9156 0 18.5103 0C19.105 0 19.6926 0.131904 20.2326 0.386611C20.7725 0.641319 21.252 1.01277 21.638 1.47532C22.0239 1.93788 22.3071 2.48054 22.468 3.06585C22.6289 3.65116 22.6637 4.2652 22.57 4.86559C24.9866 5.72931 27.0805 7.34047 28.5612 9.47561C30.0418 11.6108 30.8359 14.1641 30.8333 16.7814V29.3907L37 33.5938V35.6953H0V33.5938L6.16667 29.3907V16.7814ZM22.6111 37.7969C22.6111 38.9116 22.178 39.9807 21.407 40.7689C20.636 41.5572 19.5903 42 18.5 42C17.4097 42 16.364 41.5572 15.593 40.7689C14.822 39.9807 14.3889 38.9116 14.3889 37.7969H22.6111Z" fill="#FFCC00"/>
</svg>
