<svg width="81" height="73" viewBox="0 0 81 73" fill="none" xmlns="http://www.w3.org/2000/svg">
<path id="Vector" d="M7.36363 58.4C5.33863 58.4 3.60573 57.6858 2.16491 56.2575C0.724091 54.8291 0.00245454 53.1099 0 51.1V7.3C0 5.2925 0.721636 3.57457 2.16491 2.1462C3.60818 0.717834 5.34109 0.00243333 7.36363 0H66.2727C68.2977 0 70.0318 0.7154 71.4751 2.1462C72.9184 3.577 73.6388 5.29493 73.6363 7.3V21.9C73.6363 22.9342 73.2829 23.8017 72.576 24.5025C71.869 25.2033 70.9952 25.5524 69.9545 25.55C68.9138 25.5476 68.04 25.1972 67.333 24.4988C66.6261 23.8004 66.2727 22.9342 66.2727 21.9V14.6L38.7511 31.6638C38.4443 31.8463 38.1227 31.9837 37.7865 32.0762C37.4502 32.1687 37.1274 32.2137 36.8182 32.2113C36.5089 32.2088 36.1873 32.1638 35.8535 32.0762C35.5197 31.9886 35.1969 31.8511 34.8852 31.6638L7.36363 14.6V51.1H40.5C41.5432 51.1 42.4182 51.4504 43.1251 52.1512C43.832 52.852 44.1842 53.7183 44.1818 54.75C44.1793 55.7817 43.8259 56.6492 43.1214 57.3524C42.417 58.0557 41.5432 58.4049 40.5 58.4H7.36363ZM36.8182 25.55L66.2727 7.3H7.36363L36.8182 25.55ZM66.2727 73C62.2227 73 58.7556 71.5704 55.8716 68.7113C52.9875 65.8521 51.5454 62.415 51.5454 58.4V41.975C51.5454 39.42 52.4352 37.2604 54.2147 35.4963C55.9943 33.7321 58.1727 32.85 60.75 32.85C63.3272 32.85 65.5056 33.7321 67.2852 35.4963C69.0647 37.2604 69.9545 39.42 69.9545 41.975V54.75C69.9545 55.7842 69.601 56.6516 68.8941 57.3524C68.1872 58.0532 67.3134 58.4024 66.2727 58.4C65.232 58.3976 64.3581 58.0472 63.6512 57.3488C62.9443 56.6504 62.5909 55.7842 62.5909 54.75V41.975C62.5909 41.4883 62.4068 41.0625 62.0386 40.6975C61.6704 40.3325 61.2409 40.15 60.75 40.15C60.2591 40.15 59.8295 40.3325 59.4613 40.6975C59.0931 41.0625 58.9091 41.4883 58.9091 41.975V58.4C58.9091 60.4075 59.6307 62.1267 61.074 63.5575C62.5172 64.9883 64.2501 65.7024 66.2727 65.7C68.2952 65.6976 70.0294 64.9834 71.4751 63.5575C72.9208 62.1315 73.6412 60.4124 73.6363 58.4V47.45C73.6363 46.4158 73.9898 45.5496 74.6967 44.8512C75.4036 44.1528 76.2774 43.8024 77.3181 43.8C78.3589 43.7976 79.2339 44.148 79.9433 44.8512C80.6526 45.5544 81.0049 46.4207 80.9999 47.45V58.4C80.9999 62.415 79.5579 65.8521 76.6738 68.7113C73.7897 71.5704 70.3227 73 66.2727 73Z" fill="#FFCC00"/>
</svg>
